<svg xmlns="http://www.w3.org/2000/svg" width="28" height="28" viewBox="0 0 28 28"><path d="M26 23.5v-12q-.5.562-1.078 1.031-4.188 3.219-6.656 5.281-.797.672-1.297 1.047t-1.352.758-1.602.383h-.031q-.75 0-1.602-.383t-1.352-.758-1.297-1.047q-2.469-2.063-6.656-5.281-.578-.469-1.078-1.031v12q0 .203.148.352t.352.148h23q.203 0 .352-.148t.148-.352zm0-16.422v-.383l-.008-.203-.047-.195-.086-.141-.141-.117-.219-.039h-23q-.203 0-.352.148t-.148.352q0 2.625 2.297 4.438 3.016 2.375 6.266 4.953.094.078.547.461t.719.586.695.492.789.43.672.141h.031q.313 0 .672-.141t.789-.43.695-.492.719-.586.547-.461q3.25-2.578 6.266-4.953.844-.672 1.57-1.805t.727-2.055zm2-.578v17q0 1.031-.734 1.766t-1.766.734h-23q-1.031 0-1.766-.734t-.734-1.766v-17q0-1.031.734-1.766t1.766-.734h23q1.031 0 1.766.734t.734 1.766z"/></svg>