<svg xmlns="http://www.w3.org/2000/svg" width="16" height="16" viewBox="0 0 16 16"><path d="M8 16c4.418 0 8-3.582 8-8s-3.582-8-8-8-8 3.582-8 8 3.582 8 8 8zm0-14.5c3.59 0 6.5 2.91 6.5 6.5s-2.91 6.5-6.5 6.5-6.5-2.91-6.5-6.5 2.91-6.5 6.5-6.5zm-4 3.5c0-.552.448-1 1-1s1 .448 1 1-.448 1-1 1-1-.448-1-1zm6 0c0-.552.448-1 1-1s1 .448 1 1-.448 1-1 1-1-.448-1-1zm-5.002 7.199l-1.286-.772c.874-1.454 2.467-2.427 4.288-2.427s3.413.973 4.288 2.427l-1.286.772c-.612-1.018-1.727-1.699-3.002-1.699s-2.389.681-3.002 1.699z"/></svg>