<svg xmlns="http://www.w3.org/2000/svg" width="30" height="28" viewBox="0 0 30 28"><path d="M29.953 8.125q.359 1-2.344 4.594-.375.5-1.016 1.328-1.219 1.563-1.406 2.047-.266.641.219 1.266.266.328 1.266 1.281h.016l.063.063q2.203 2.047 2.984 3.453.047.078.102.195t.109.414-.008.531-.391.43-.922.195l-4 .063q-.375.078-.875-.078t-.812-.344l-.313-.187q-.469-.328-1.094-1t-1.07-1.211-.953-.906-.883-.242q-.047.016-.125.055t-.266.227-.336.461-.266.812-.102 1.211q0 .234-.055.43t-.117.289l-.063.078q-.281.297-.828.344h-1.797q-1.109.063-2.281-.258t-2.055-.828-1.609-1.031-1.102-.898l-.391-.375q-.156-.156-.43-.469t-1.117-1.422-1.656-2.359-1.914-3.297-2.039-4.25q-.094-.25-.094-.422t.047-.25l.063-.094q.234-.297.891-.297l4.281-.031q.187.031.359.102t.25.133l.078.047q.25.172.375.5.313.781.719 1.617t.641 1.273l.25.453q.453.938.875 1.625t.758 1.07.648.602.531.219.422-.078q.031-.016.078-.078t.187-.344.211-.734.148-1.266 0-1.953q-.031-.625-.141-1.141t-.219-.719l-.094-.187q-.391-.531-1.328-.672-.203-.031.078-.375.266-.297.594-.469.828-.406 3.734-.375 1.281.016 2.109.203.313.078.523.211t.32.375.164.5.055.711-.016.859-.039 1.102-.023 1.289q0 .172-.016.656t-.008.75.055.633.18.609.352.383q.125.031.266.063t.406-.172.594-.539.812-1.047 1.062-1.68q.938-1.625 1.672-3.516.063-.156.156-.273t.172-.164l.063-.047.078-.039.203-.047.313-.008 4.5-.031q.609-.078 1 .039t.484.258z"/></svg>