<svg xmlns="http://www.w3.org/2000/svg" xmlns:xlink="http://www.w3.org/1999/xlink" version="1.1" x="0px" y="0px" viewBox="0 0 100 100" enable-background="new 0 0 100 100" xml:space="preserve"><g><path d="M74.753,55.392c0.338,0.101,0.863-0.265,1.178-0.815c0.314-0.556,0.305-1.101-0.026-1.224   c-0.338-0.123-0.882,0.243-1.203,0.817C74.38,54.742,74.405,55.286,74.753,55.392z"></path><path d="M74.531,58.009c0.445-0.319,0.793-0.926,0.778-1.363c-0.015-0.444-0.396-0.55-0.856-0.229   c-0.464,0.325-0.82,0.957-0.791,1.398C73.691,58.25,74.08,58.333,74.531,58.009z"></path><path d="M71.378,60.276c0.476-0.342,0.826-0.965,0.785-1.396c-0.04-0.44-0.472-0.524-0.963-0.18   c-0.499,0.347-0.857,0.993-0.799,1.43C70.458,60.562,70.896,60.622,71.378,60.276z"></path><path d="M72.256,54.651c0.389,0.113,0.962-0.271,1.291-0.862c0.33-0.592,0.297-1.185-0.083-1.324   c-0.387-0.142-0.982,0.247-1.321,0.863C71.805,53.941,71.859,54.532,72.256,54.651z"></path><path d="M77.524,51.011c-0.459,0.306-0.832,0.967-0.828,1.464c0.003,0.489,0.37,0.631,0.816,0.323   c0.44-0.298,0.804-0.937,0.813-1.423C78.337,50.875,77.98,50.709,77.524,51.011z"></path><path d="M77.535,49.342c0.469-0.304,0.854-0.985,0.865-1.535c0.012-0.558-0.367-0.777-0.849-0.475   c-0.489,0.303-0.885,1.015-0.88,1.575C76.676,49.459,77.063,49.647,77.535,49.342z"></path><path d="M51.472,64.475c-0.687,0-1.236,0.366-1.228,0.815c0.008,0.441,0.561,0.799,1.234,0.799s1.225-0.357,1.229-0.799   C52.713,64.841,52.159,64.475,51.472,64.475z"></path><path d="M48.806,56.852c0.521-0.382,0.503-1.015-0.046-1.407c-0.555-0.399-1.433-0.399-1.952,0   c-0.516,0.393-0.478,1.025,0.076,1.407C47.433,57.235,48.29,57.235,48.806,56.852z"></path><path d="M45.617,62.862c-0.522-0.335-1.329-0.335-1.795,0c-0.463,0.333-0.409,0.866,0.113,1.191c0.517,0.327,1.306,0.327,1.769,0   C46.17,63.729,46.134,63.195,45.617,62.862z"></path><path d="M47.07,60.525c-0.488,0.352-0.455,0.914,0.068,1.258c0.519,0.34,1.33,0.34,1.817,0c0.493-0.344,0.478-0.906-0.042-1.258   C48.391,60.169,47.562,60.169,47.07,60.525z"></path><path d="M78.047,54.134c-0.204-0.074-0.497,0.064-0.763,0.329c-0.182,0.183-0.326,0.393-0.425,0.607   c-0.226,0.477-0.196,0.899,0.08,0.982c0.076,0.022,0.162,0.019,0.255-0.01c0.091-0.028,0.191-0.077,0.297-0.151   c0.418-0.302,0.762-0.896,0.769-1.333c0.001-0.035,0-0.069-0.003-0.1C78.241,54.297,78.173,54.18,78.047,54.134z"></path><path d="M83.827,35.712c-0.388,0.677-0.432,1.381-0.104,1.572c0.321,0.188,0.884-0.189,1.263-0.842   c0.38-0.656,0.44-1.359,0.129-1.572C84.797,34.655,84.217,35.032,83.827,35.712z"></path><path d="M41.334,57.774c-0.742,0-1.288,0.427-1.22,0.948c0.069,0.518,0.714,0.935,1.441,0.935c0.727,0,1.274-0.417,1.222-0.935   C42.724,58.201,42.078,57.774,41.334,57.774z"></path><path d="M47.785,58.723c-0.024-0.521-0.646-0.948-1.39-0.948c-0.742,0-1.312,0.427-1.273,0.948c0.039,0.518,0.66,0.935,1.387,0.935   C47.236,59.657,47.808,59.24,47.785,58.723z"></path><path d="M25.614,54.463c-0.267-0.265-0.561-0.403-0.763-0.329c-0.125,0.046-0.194,0.163-0.21,0.325   c-0.003,0.03-0.004,0.064-0.004,0.1c0.01,0.437,0.354,1.031,0.771,1.333c0.104,0.074,0.205,0.123,0.296,0.151   c0.092,0.028,0.178,0.032,0.254,0.01c0.276-0.083,0.307-0.506,0.081-0.982C25.938,54.855,25.794,54.646,25.614,54.463z"></path><path d="M22.741,50.473c-0.279,0.139-0.249,0.689,0.062,1.224c0.308,0.533,0.786,0.866,1.072,0.742   c0.291-0.123,0.275-0.671-0.041-1.224C23.516,50.658,23.024,50.329,22.741,50.473z"></path><path d="M25.373,51.011c-0.455-0.302-0.812-0.136-0.801,0.364c0.01,0.486,0.373,1.125,0.814,1.423   c0.445,0.308,0.812,0.166,0.816-0.323C26.205,51.978,25.833,51.316,25.373,51.011z"></path><path d="M22.548,52.282c-0.403-0.284-0.703-0.143-0.673,0.304c0.029,0.441,0.37,1.021,0.762,1.303   c0.397,0.285,0.706,0.165,0.688-0.271C23.305,53.168,22.956,52.568,22.548,52.282z"></path><path d="M21.639,47.386c-0.328-0.573-0.816-0.888-1.084-0.708c-0.263,0.18-0.212,0.769,0.108,1.322   c0.317,0.551,0.791,0.868,1.062,0.71C22.001,48.549,21.966,47.957,21.639,47.386z"></path><path d="M25.346,47.332c-0.482-0.302-0.861-0.083-0.848,0.475c0.011,0.55,0.395,1.231,0.863,1.535   c0.473,0.306,0.862,0.117,0.866-0.435C26.23,48.347,25.834,47.635,25.346,47.332z"></path><path d="M30.755,53.328c-0.339-0.616-0.934-1.005-1.321-0.863c-0.379,0.14-0.413,0.732-0.083,1.324   c0.329,0.592,0.902,0.976,1.29,0.862C31.037,54.532,31.092,53.941,30.755,53.328z"></path><path d="M82.235,48c0.32-0.554,0.371-1.142,0.108-1.322c-0.268-0.18-0.757,0.135-1.085,0.708c-0.327,0.57-0.363,1.163-0.086,1.325   C81.443,48.869,81.916,48.551,82.235,48z"></path><path d="M31.698,58.701c-0.492-0.345-0.921-0.261-0.963,0.18c-0.041,0.431,0.309,1.054,0.785,1.396   c0.481,0.346,0.92,0.285,0.977-0.146C32.554,59.694,32.195,59.048,31.698,58.701z"></path><path d="M79.574,53.617c-0.02,0.437,0.289,0.557,0.686,0.271c0.394-0.281,0.734-0.861,0.763-1.303   c0.032-0.446-0.27-0.588-0.674-0.304C79.942,52.568,79.592,53.168,79.574,53.617z"></path><path d="M28.443,56.417c-0.459-0.321-0.84-0.216-0.855,0.229c-0.014,0.438,0.332,1.044,0.778,1.363   c0.45,0.324,0.841,0.241,0.869-0.193C29.264,57.374,28.908,56.742,28.443,56.417z"></path><path d="M80.096,51.696c0.309-0.534,0.34-1.085,0.061-1.224c-0.282-0.144-0.774,0.186-1.093,0.742   c-0.316,0.553-0.334,1.101-0.04,1.224C79.31,52.562,79.786,52.229,80.096,51.696z"></path><path d="M28.197,54.17c-0.323-0.574-0.865-0.94-1.203-0.817c-0.332,0.123-0.34,0.668-0.025,1.224   c0.313,0.551,0.837,0.916,1.176,0.815C28.492,55.286,28.518,54.742,28.197,54.17z"></path><path d="M44.995,54.164c0.52-0.406,0.474-1.078-0.11-1.495c-0.588-0.42-1.493-0.42-2.011,0c-0.513,0.417-0.447,1.089,0.141,1.495   C43.598,54.568,44.48,54.568,44.995,54.164z"></path><circle cx="53.153" cy="35.581" r="1.201"></circle><circle cx="56.333" cy="34.263" r="1.2"></circle><path d="M32.165,35.216c-0.271,0.491-0.125,1.237,0.325,1.663c0.448,0.424,1.025,0.367,1.29-0.125   c0.263-0.488,0.12-1.225-0.322-1.649C33.014,34.68,32.436,34.728,32.165,35.216z"></path><circle cx="56.333" cy="29.749" r="1.201"></circle><circle cx="51.824" cy="38.766" r="1.2"></circle><circle cx="47.309" cy="38.765" r="1.2"></circle><circle cx="49.96" cy="32.388" r="1.2"></circle><circle cx="53.142" cy="41.957" r="1.2"></circle><path d="M56.667,37.61c-0.405-0.117-0.861-0.015-1.182,0.305c-0.198,0.199-0.313,0.451-0.343,0.71   c-0.007,0.049-0.01,0.102-0.01,0.152c0,0.664,0.536,1.202,1.2,1.202c0.166,0,0.322-0.034,0.466-0.094   c0.144-0.059,0.278-0.146,0.396-0.263c0.425-0.425,0.463-1.09,0.118-1.56C57.16,37.852,56.94,37.692,56.667,37.61z"></path><circle cx="65.371" cy="38.765" r="1.201"></circle><path d="M79.425,35.646c-0.582,0.362-1.05,1.208-1.046,1.873c0.004,0.654,0.467,0.879,1.026,0.516   c0.556-0.359,1.013-1.169,1.026-1.823C80.444,35.548,79.996,35.288,79.425,35.646z"></path><circle cx="62.721" cy="32.378" r="1.201"></circle><circle cx="59.528" cy="35.571" r="1.202"></circle><circle cx="60.855" cy="38.765" r="1.201"></circle><path d="M28.412,33.721c-0.129-0.664-0.668-1.174-1.208-1.139c-0.542,0.036-0.88,0.609-0.75,1.282   c0.131,0.673,0.679,1.182,1.22,1.139C28.212,34.959,28.541,34.386,28.412,33.721z"></path><path d="M57.332,62.869c-0.516,0.332-0.547,0.865-0.077,1.194c0.463,0.321,1.252,0.321,1.768,0c0.52-0.329,0.568-0.862,0.104-1.194   C58.657,62.533,57.853,62.533,57.332,62.869z"></path><path d="M55.135,58.723c-0.02,0.518,0.555,0.935,1.283,0.935c0.728,0,1.345-0.417,1.381-0.935c0.034-0.521-0.539-0.948-1.282-0.948   C55.774,57.774,55.155,58.201,55.135,58.723z"></path><path d="M59.874,54.155c0.585-0.407,0.648-1.077,0.131-1.496c-0.521-0.421-1.427-0.421-2.011,0c-0.581,0.419-0.621,1.091-0.1,1.496   C58.411,54.561,59.295,54.561,59.874,54.155z"></path><path d="M60.144,58.723c-0.05,0.518,0.5,0.935,1.229,0.935c0.727,0,1.368-0.417,1.434-0.935c0.064-0.521-0.484-0.948-1.228-0.948   S60.192,58.201,60.144,58.723z"></path><path d="M30.293,38.61c-0.28,0.507-0.133,1.268,0.329,1.693c0.46,0.423,1.054,0.351,1.329-0.156   c0.272-0.505,0.126-1.255-0.328-1.678C31.168,38.043,30.572,38.105,30.293,38.61z"></path><path d="M51.822,57.809c-0.456-0.093-0.965-0.013-1.319,0.242c-0.221,0.16-0.345,0.358-0.374,0.562   c-0.006,0.041-0.009,0.081-0.008,0.121c0.01,0.519,0.608,0.931,1.334,0.931c0.181,0,0.354-0.023,0.511-0.07   c0.159-0.047,0.308-0.113,0.437-0.202c0.472-0.329,0.523-0.852,0.143-1.223C52.374,58.001,52.129,57.876,51.822,57.809z"></path><path d="M51.435,54.015c-0.774,0-1.392,0.465-1.382,1.03c0.01,0.562,0.633,1.012,1.391,1.012c0.756,0,1.375-0.449,1.382-1.012   C52.831,54.479,52.209,54.015,51.435,54.015z"></path><path d="M51.461,61.26c-0.713,0-1.285,0.396-1.276,0.88c0.01,0.479,0.583,0.861,1.283,0.861c0.699,0,1.271-0.383,1.276-0.861   C52.75,61.655,52.176,61.26,51.461,61.26z"></path><path d="M21.682,36.118c-0.318,0.529-0.164,1.328,0.344,1.781c0.506,0.451,1.167,0.385,1.477-0.143   c0.309-0.525,0.156-1.313-0.342-1.764C22.66,35.539,21.998,35.593,21.682,36.118z"></path><path d="M28.089,37.135c-0.541,0.051-0.875,0.64-0.745,1.313c0.131,0.673,0.677,1.17,1.216,1.11   c0.535-0.06,0.861-0.647,0.731-1.312S28.625,37.084,28.089,37.135z"></path><path d="M49.978,51.036c0.011,0.611,0.661,1.102,1.45,1.102c0.79,0,1.437-0.49,1.444-1.102c0.006-0.616-0.643-1.124-1.452-1.124   C50.612,49.912,49.966,50.42,49.978,51.036z"></path><path d="M55.803,61.789c0.52-0.344,0.55-0.906,0.06-1.258c-0.494-0.354-1.324-0.354-1.844,0c-0.517,0.352-0.527,0.914-0.033,1.258   C54.477,62.131,55.287,62.131,55.803,61.789z"></path><path d="M56.025,56.846c0.551-0.386,0.584-1.018,0.064-1.411c-0.521-0.397-1.399-0.397-1.952,0   c-0.547,0.394-0.559,1.025-0.036,1.411C54.621,57.228,55.478,57.228,56.025,56.846z"></path></g><path d="M98.723,29.357c-0.615-0.422-5.61-3.434-9.144-4.983c-1.285-0.49-3.37,0.238-4.563,0.643  c-1.125,0.383-2.163,0.8-2.562,0.963c-7.842-2.619-19.355-4.016-31.047-4.016c-19.939,0-39.357,4.062-40.937,11.326  c-1.666-0.506-3.712-0.978-4.932-0.732c-8.439,1.698-5.756,4.021,0.188,8.421c2.188,1.956,5.064,0.441,7.248,1.518  c3.24,9.203,9.758,16.616,18.866,21.315c-0.293,0.349-0.493,0.715-0.588,1.094c-1.075,1.001-2.043,2.087-2.893,3.25  c-0.376,0.518-0.729,1.05-1.057,1.595c-1.457,1.211-2.393,2.663-2.393,4.391c0,8.62,20.938,9.953,26.082,9.953  s26.08-1.333,26.08-9.953c0-1.857-0.97-3.374-2.543-4.616c-0.291-0.47-0.598-0.926-0.925-1.369v-0.002  c-0.987-1.346-2.155-2.591-3.598-3.82c10.863-5.229,18.274-14.28,21.036-25.62c0.559-0.048,1.09-0.389,1.311-1.108  C92.859,35.967,103.116,32.356,98.723,29.357z M7.983,38.764c-0.093-0.06-0.312-0.249-0.312-0.249  c-0.998-0.736-2.389-1.801-3.264-2.513c2.663-0.616,4.16-0.123,6.726,0.813c0.128,0.206,0.271,0.41,0.428,0.61  c0.12,0.567,0.25,1.129,0.39,1.685C10.184,38.919,8.403,39.035,7.983,38.764z M71.167,68.156L71.167,68.156  c1.204,1.359,2.224,2.868,3.035,4.671c0.207,0.388,0.34,0.835,0.337,1.254c-0.003,0.329-0.062,0.641-0.158,0.907  c-1.38,3.268-10.528,6.599-23.39,6.599c-13.98,0-23.571-3.935-23.571-7.445c0-0.172,0.022-0.343,0.067-0.516l0.07-0.164  c0.759-1.91,1.841-3.693,3.197-5.306c0.338-0.402,0.693-0.793,1.064-1.171c0.34,0.415,0.813,0.807,1.399,1.171  c2.431,1.511,6.808,2.52,11.803,2.52c4.945,0,9.286-0.985,11.73-2.473c0.118-0.016,0.236-0.029,0.353-0.047  c3.85-0.5,7.527-1.505,10.951-2.942C69.193,66.146,70.235,67.104,71.167,68.156z M83.631,50.658c0.01-0.386-0.245-0.505-0.603-0.255  c-0.384,0.267-0.727,0.856-0.766,1.303c-0.023,0.259,0.061,0.412,0.21,0.439c-0.774,0.942-1.6,1.846-2.469,2.71  c-0.019-0.01-0.038-0.022-0.061-0.03c-0.264-0.098-0.723,0.235-1.018,0.738c-0.104,0.18-0.173,0.354-0.206,0.512  c-0.799,0.724-1.635,1.415-2.501,2.081c0.022-0.234-0.057-0.408-0.231-0.451c-0.312-0.072-0.811,0.287-1.11,0.808  c-0.17,0.298-0.235,0.576-0.2,0.772c-2.326,1.622-4.845,3.044-7.516,4.26c-4.799,1.99-10.117,3.097-15.713,3.097  c-5.833,0-11.372-1.203-16.319-3.352c-2.445-1.165-4.761-2.498-6.909-4.001c0.036-0.198-0.029-0.477-0.2-0.776  c-0.298-0.521-0.799-0.88-1.11-0.808c-0.176,0.043-0.253,0.217-0.231,0.451c-0.867-0.666-1.701-1.359-2.502-2.085  c-0.034-0.156-0.103-0.33-0.207-0.508c-0.294-0.503-0.752-0.836-1.017-0.738c-0.021,0.008-0.042,0.019-0.059,0.03  c-0.869-0.864-1.695-1.768-2.468-2.71c0.147-0.029,0.231-0.183,0.209-0.439c-0.039-0.446-0.384-1.036-0.768-1.303  c-0.356-0.25-0.61-0.131-0.603,0.253c-1.489-2.024-2.761-4.219-3.778-6.58c1.308,0.878,2.562,1.764,2.562,1.764  c1.709,1.204,3.517-1.36,1.808-2.565c0,0-1.762-1.24-3.348-2.282c7.562,3.603,21.104,5.544,34.896,5.544  c15.64,0,30.958-2.497,37.601-7.079C87.891,43.636,86.05,47.37,83.631,50.658z M80.188,39.956c-0.168-0.17-0.461-0.162-0.796,0.062  c-0.105,0.07-0.205,0.154-0.301,0.25c-4.993,1.368-11.653,2.444-19.541,2.897c0.303-0.003,0.605-0.118,0.837-0.35  c0.468-0.469,0.468-1.229,0-1.698c-0.469-0.468-1.229-0.468-1.698,0c-0.468,0.469-0.468,1.229,0,1.698  c0.232,0.233,0.537,0.349,0.842,0.351c-0.662,0.038-1.317,0.08-1.998,0.108c-0.011-0.654-0.543-1.181-1.2-1.181  c-0.664,0-1.2,0.537-1.2,1.2l0.001,0.062c-1.219,0.031-2.46,0.047-3.727,0.047c-5.251,0-10.096-0.274-14.441-0.747  c0.103-0.225,0.137-0.51,0.077-0.811c-0.124-0.635-0.616-1.101-1.103-1.04c-0.489,0.062-0.786,0.634-0.66,1.276  c0.028,0.143,0.073,0.276,0.133,0.396c-0.588-0.071-1.165-0.147-1.732-0.226c-0.142-0.628-0.643-1.081-1.14-1.018  c-0.358,0.045-0.619,0.344-0.701,0.744c-1.851-0.293-3.583-0.623-5.184-0.982c0.069-0.064,0.132-0.143,0.184-0.235  c0.294-0.524,0.144-1.299-0.337-1.735c-0.483-0.439-1.122-0.373-1.424,0.152c-0.247,0.427-0.192,1.026,0.099,1.471  c-7.413-1.833-11.673-4.283-11.673-6.395c0-3.975,15.108-9.15,37.902-9.15c22.797,0,37.903,5.175,37.903,9.15  C89.311,36.107,86.02,38.224,80.188,39.956z M95.79,31.285c-0.913,0.608-2.216,1.317-3.419,2.133  c-0.41-2.188-2.433-4.091-5.603-5.683c0.677-0.208,1.307-0.365,1.744-0.396c2.454,1.092,5.637,2.912,7.32,3.917L95.79,31.285z"></path></svg>