<?xml version="1.0" standalone="no"?>
<!DOCTYPE svg PUBLIC "-//W3C//DTD SVG 20010904//EN"
 "http://www.w3.org/TR/2001/REC-SVG-20010904/DTD/svg10.dtd">
<svg version="1.0" xmlns="http://www.w3.org/2000/svg"
 width="16.000000pt" height="16.000000pt" viewBox="0 0 16.000000 16.000000"
 preserveAspectRatio="xMidYMid meet">
<metadata>
Created by potrace 1.11, written by Peter Selinger 2001-2013
</metadata>
<g transform="translate(0.000000,16.000000) scale(0.003320,-0.003320)"
fill="#000000" stroke="none">
<path d="M250 3530 l0 -80 80 0 80 0 0 -30 c0 -16 1 -31 1 -32 4 -7 15 -108
12 -108 -2 0 -29 17 -61 39 -84 57 -183 101 -263 116 -93 18 -89 19 -90 -6 0
-13 -2 -50 -4 -81 -3 -40 0 -58 8 -59 69 -5 192 -51 268 -102 120 -79 189
-175 254 -352 163 -441 498 -830 907 -1054 l77 -42 -90 -261 c-49 -144 -89
-263 -89 -265 0 -2 482 -3 1070 -3 589 0 1070 1 1070 3 0 1 -40 120 -89 264
l-90 262 77 42 c340 187 630 486 811 837 46 91 131 294 131 314 0 22 79 129
136 185 73 71 210 145 303 164 59 11 59 11 54 43 -2 17 -6 51 -8 76 -2 25 -4
48 -4 52 -2 11 -134 -24 -212 -57 -42 -17 -101 -48 -131 -68 -60 -41 -70 -44
-62 -23 3 8 7 38 9 68 1 29 3 59 4 66 1 8 24 12 81 12 l80 0 0 80 0 80 -2160
0 -2160 0 0 -80z m3996 -127 c-3 -27 -8 -70 -11 -98 -3 -27 -7 -61 -10 -75 -3
-14 -7 -40 -10 -59 -3 -19 -8 -37 -10 -41 -2 -4 -7 -22 -10 -41 -12 -70 -86
-271 -135 -371 -190 -380 -499 -682 -880 -857 -92 -43 -238 -97 -283 -105 -12
-2 -40 -9 -63 -15 -200 -54 -540 -63 -755 -21 -391 78 -723 257 -992 534 -239
247 -412 573 -477 900 -20 96 -24 126 -35 244 l-4 52 1840 0 1840 0 -5 -47z
m-2504 -1758 c68 -25 199 -62 248 -71 14 -2 45 -9 70 -14 121 -24 457 -34 595
-16 107 14 265 50 379 87 66 22 123 36 127 32 4 -5 27 -72 52 -150 l45 -143
-850 0 c-467 0 -847 3 -845 8 3 4 24 68 47 142 44 141 48 150 57 150 3 0 37
-11 75 -25z"/>
<path d="M970 3210 l0 -80 80 0 80 0 0 80 0 80 -80 0 -80 0 0 -80z"/>
<path d="M1370 3050 l0 -80 80 0 80 0 0 80 0 80 -80 0 -80 0 0 -80z"/>
<path d="M1850 3050 l0 -80 80 0 80 0 0 80 0 80 -80 0 -80 0 0 -80z"/>
<path d="M2330 3050 l0 -80 80 0 80 0 0 80 0 80 -80 0 -80 0 0 -80z"/>
<path d="M2810 3050 l0 -80 80 0 80 0 0 80 0 80 -80 0 -80 0 0 -80z"/>
<path d="M3290 3050 l0 -80 80 0 80 0 0 80 0 80 -80 0 -80 0 0 -80z"/>
<path d="M3770 3050 l0 -80 80 0 80 0 0 80 0 80 -80 0 -80 0 0 -80z"/>
<path d="M974 2976 c14 -157 74 -317 178 -473 70 -104 203 -249 293 -319 28
-22 52 -41 55 -44 18 -18 128 -84 195 -118 101 -50 189 -80 260 -88 l55 -7 0
82 c0 70 -2 81 -17 82 -84 4 -218 60 -344 144 -114 76 -271 227 -343 328 -103
147 -173 332 -176 465 0 21 -4 22 -81 22 l-82 0 7 -74z"/>
<path d="M1610 2730 l0 -80 80 0 80 0 0 80 0 80 -80 0 -80 0 0 -80z"/>
<path d="M2090 2730 l0 -80 80 0 80 0 0 80 0 80 -80 0 -80 0 0 -80z"/>
<path d="M2570 2730 l0 -80 80 0 80 0 0 80 0 80 -80 0 -80 0 0 -80z"/>
<path d="M3050 2730 l0 -80 80 0 80 0 0 80 0 80 -80 0 -80 0 0 -80z"/>
<path d="M3530 2730 l0 -80 80 0 80 0 0 80 0 80 -80 0 -80 0 0 -80z"/>
<path d="M1850 2410 l0 -80 80 0 80 0 0 80 0 80 -80 0 -80 0 0 -80z"/>
<path d="M2330 2410 l0 -80 80 0 80 0 0 80 0 80 -80 0 -80 0 0 -80z"/>
<path d="M2810 2410 l0 -80 80 0 80 0 0 80 0 80 -80 0 -80 0 0 -80z"/>
<path d="M3290 2410 l0 -80 80 0 80 0 0 80 0 80 -80 0 -80 0 0 -80z"/>
<path d="M2570 2090 l0 -80 80 0 80 0 0 80 0 80 -80 0 -80 0 0 -80z"/>
<path d="M3050 2090 l0 -80 80 0 80 0 0 80 0 80 -80 0 -80 0 0 -80z"/>
</g>
</svg>
